<?xml version="1.0" encoding="UTF-8" standalone="no"?>
<!-- Created with Inkscape (http://www.inkscape.org/) -->

<svg
   width="300mm"
   height="250mm"
   viewBox="0 0 300 250"
   version="1.1"
   id="svg19045"
   inkscape:version="1.2.1 (9c6d41e410, 2022-07-14)"
   sodipodi:docname="MountFuji.svg"
   xmlns:inkscape="http://www.inkscape.org/namespaces/inkscape"
   xmlns:sodipodi="http://sodipodi.sourceforge.net/DTD/sodipodi-0.dtd"
   xmlns="http://www.w3.org/2000/svg"
   xmlns:svg="http://www.w3.org/2000/svg">
  <sodipodi:namedview
     id="namedview19047"
     pagecolor="#ffffff"
     bordercolor="#000000"
     borderopacity="0.25"
     inkscape:showpageshadow="2"
     inkscape:pageopacity="0.0"
     inkscape:pagecheckerboard="0"
     inkscape:deskcolor="#d1d1d1"
     inkscape:document-units="mm"
     showgrid="false"
     inkscape:zoom="0.18641099"
     inkscape:cx="1094.3561"
     inkscape:cy="992.43078"
     inkscape:window-width="1920"
     inkscape:window-height="1017"
     inkscape:window-x="-8"
     inkscape:window-y="-8"
     inkscape:window-maximized="1"
     inkscape:current-layer="layer1" />
  <defs
     id="defs19042" />
  <g
     inkscape:label="Layer 1"
     inkscape:groupmode="layer"
     id="layer1">
    <path
       style="display:inline;fill:#6a788c;fill-opacity:1;stroke:#000000;stroke-width:0.930455;stroke-dasharray:none;stroke-opacity:1"
       d="M -1.9924577e-4,218.19907 C 87.217711,179.59363 123.98942,138.69948 131.47604,132.82695 c 4.31677,-3.38609 30.10906,-4.08985 30.10906,-4.08985 l 8.02909,-4.82157 c 0,0 5.01817,0.27858 11.03999,4.82157 6.02181,4.543 15.006,-0.15033 20.0727,3.84407 19.76743,15.58393 33.4478,46.82775 99.27292,87.01574 65.82511,40.188 -11.4548,32.724 -11.4548,32.724 l -305.607001,1.52316 c 2.300289,-11.9096 3.641497,-29.70474 17.06180175423,-35.645 z"
       id="path19360"
       sodipodi:nodetypes="ssccsssccs" />
    <path
       style="display:inline;fill:#333333;stroke:#000000;stroke-width:0.930455;stroke-dasharray:none;stroke-opacity:1"
       d="m 161.5853,128.7371 -6.96905,6.0685"
       id="path25587" />
    <path
       id="path19360-7-3"
       style="display:inline;fill:#e9efe9;fill-opacity:1;stroke:#000000;stroke-width:0.930455;stroke-dasharray:none;stroke-opacity:1"
       d="m 169.61421,123.91504 -8.02897,4.82149 c 0,0 -25.79199,0.70348 -30.10876,4.08957 -6.57555,5.15789 -35.755897,37.33317 -101.851667,71.24459 l 0.0041,0.004 c 0,0 -0.648535,6.64955 6.627818,4.36871 4.601968,-1.44253 7.08586,-7.12357 12.043553,-8.03706 8.24196,-1.51864 3.679674,2.80682 4.391064,8.14588 0.767943,5.76347 8.655843,-5.64799 8.655843,-5.64799 0,0 11.792881,-7.60254 11.918335,-0.76 0.125455,6.84253 2.885612,2.17206 2.885612,2.17206 0,0 10.538132,-13.14177 8.65632,2.60692 -1.881816,15.74868 11.666988,-6.19094 11.666988,-6.19094 0,0 2.634783,-3.36727 3.512964,2.49776 0.87819,5.86503 3.13625,6.40838 3.13625,6.40838 0,0 2.13285,-2.17239 3.38739,-8.14603 1.25454,-5.97364 4.26537,-1.95508 4.26537,-1.95508 l 1.26401,4.41347 c 0,0 0.61785,3.67825 1.49603,4.43853 0.87818,0.76029 2.38384,-5.5391 2.38384,-5.5391 0,0 3.01051,-7.0597 5.01778,-2.28077 2.00727,4.7789 5.77122,4.50697 5.77122,4.50697 0,0 1.94471,-0.81435 2.07016,-6.57078 0.12546,-5.75641 2.75952,1.46609 2.75952,1.46609 0,0 1.06657,5.37646 2.38383,6.29966 1.31727,0.92321 2.63447,-3.9643 2.63447,-3.9643 0,0 2.57201,-10.20946 5.64565,-3.25832 3.07363,6.95116 5.26893,11.0782 5.26893,11.0782 0,0 2.64108,3.0956 4.89272,-6.40792 2.25165,-9.50352 4.82917,-3.99249 4.82917,-3.99249 0,0 3.45997,10.36831 6.74222,8.37151 3.28226,-1.99681 0.70952,-7.60334 0.70952,-7.60334 0,0 -0.44361,-3.60954 6.29832,3.68646 6.74192,7.29601 4.70152,-4.07032 4.70152,-4.07032 0,0 0.97588,-1.99686 3.72587,4.30073 2.75,6.29761 2.48409,-4.45463 2.48409,-4.45463 0,0 -1.24219,-5.52957 4.87877,1.84323 6.12097,7.37281 6.47609,-0.69121 6.47609,-0.69121 0,0 -0.44402,-1.53577 2.66082,-3.30216 3.10484,-1.7664 5.41156,3.60951 5.41156,3.60951 0,0 3.01621,7.29604 4.25814,2.07364 1.24193,-5.2224 0.17748,-13.05616 3.992,-8.98577 3.81451,4.07042 6.29832,6.45132 6.29832,6.45132 0,0 6.29847,6.60485 4.79041,2.30405 -1.50807,-4.30081 1.9513,-5.2993 1.9513,-5.2993 0,0 1.86282,-0.15356 4.96766,2.07364 3.10483,2.2272 3.01635,-2.6879 3.01635,-2.6879 0,0 -2.04038,-8.52493 6.29832,1.30548 8.3387,9.83039 3.63699,-4.45463 3.63699,-4.45463 0,0 0.53251,-8.14042 4.87929,-3.22522 4.34676,4.91521 8.16126,3.22522 8.16126,3.22522 0,0 2.48381,-0.23008 -3.19361,-6.68128 -5.67741,-6.45121 -2.80241,-6.55422 -2.80241,-6.55422 l 5.2e-4,-0.008 c -23.67718,-21.50555 -33.96633,-38.24773 -46.81006,-48.37327 -5.0667,-3.99439 -14.05088,0.69905 -20.07268,-3.84395 -6.02181,-4.54298 -11.04015,-4.82149 -11.04015,-4.82149 z"
       sodipodi:nodetypes="ccsccssscscscscsccscscscscscscscscscscscsscscscscscsccsscc" />
    <path
       id="path19360-7"
       style="display:none;fill:#cccbcc;fill-opacity:1;stroke:#000000;stroke-width:1;stroke-dasharray:none;stroke-opacity:1"
       d="m 169.61394,123.91543 -8.02845,5.56917 h -5.2e-4 v 5.2e-4 l -6.96857,7.00939 c 0,0 -0.45497,18.21503 -4.61625,34.36018 -4.16129,16.14514 7.19336,40.62904 7.19336,40.62904 0,0 3.45997,11.97613 6.74222,9.6697 3.28226,-2.30646 0.70952,-8.78241 0.70952,-8.78241 0,0 -0.4436,-4.16927 6.29832,4.25813 6.74191,8.42742 4.70152,-4.70152 4.70152,-4.70152 0,0 0.97589,-2.30651 3.72587,4.96766 2.75,7.27418 2.48409,-5.14542 2.48409,-5.14542 0,0 -1.24218,-6.38705 4.87877,2.12906 6.12097,8.51613 6.47609,-0.7984 6.47609,-0.7984 0,0 -0.44402,-1.77393 2.66082,-3.81423 3.10484,-2.04032 5.41156,4.16925 5.41156,4.16925 0,0 3.01621,8.42745 4.25814,2.3952 1.24192,-6.03224 0.17748,-15.0808 3.992,-10.37921 3.81451,4.70162 6.29832,7.45174 6.29832,7.45174 0,0 6.29847,7.62906 4.79041,2.66134 -1.50807,-4.96775 1.9513,-6.12107 1.9513,-6.12107 0,0 1.86282,-0.17738 4.96766,2.3952 3.10482,2.57258 3.01635,-3.10472 3.01635,-3.10472 0,0 -2.04037,-9.8469 6.29832,1.50792 8.33869,11.35481 3.63699,-5.14542 3.63699,-5.14542 0,0 0.53251,-9.40276 4.87929,-3.72536 4.34675,5.67742 8.16126,3.72536 8.16126,3.72536 0,0 2.48381,-0.26576 -3.19361,-7.71736 -5.6774,-7.45161 -2.80241,-7.5706 -2.80241,-7.5706 l 5.2e-4,-0.009 c -23.67716,-24.84045 -33.96635,-44.17891 -46.81006,-55.87463 -5.0667,-4.6138 -14.05089,0.80745 -20.07268,-4.44004 -6.0218,-5.24746 -11.04015,-5.56917 -11.04015,-5.56917 z" />
    <path
       style="display:inline;fill:#cccbcc;fill-opacity:1;stroke:none;stroke-width:0.882366;stroke-dasharray:none;stroke-opacity:1"
       d="m 162.1473,207.36875 c -0.9137,-0.66562 -2.49848,-3.25681 -3.52705,-5.76693 -0.41613,-1.01552 -1.37181,-3.16603 -2.12374,-4.77892 -2.56492,-5.50175 -4.62328,-11.4934 -5.85804,-17.05204 -0.59947,-2.69871 -0.67806,-3.57923 -0.69798,-7.82005 -0.0213,-4.53245 0.0138,-4.90775 0.68119,-7.27698 2.23706,-7.94206 3.77653,-17.18005 4.411,-26.46943 l 0.21296,-3.1179 3.47414,-3.01348 c 2.74078,-2.37738 4.28583,-3.49999 7.3194,-5.31816 l 3.84525,-2.30467 1.80068,0.47351 c 2.93925,0.77292 4.63418,1.62906 9.22018,4.65729 2.17326,1.43505 3.6373,1.69435 10.41271,1.84418 7.56083,0.1672 7.36261,0.10367 11.42792,3.66251 3.86838,3.38643 7.46112,7.17423 16.42149,17.31302 11.49495,13.00671 16.54223,18.31594 24.44953,25.71848 2.63709,2.46875 2.64438,2.47863 2.64724,3.58419 0.004,1.46465 0.81847,2.87277 3.54947,6.13498 2.10073,2.50935 3.6037,4.81924 3.60409,5.53911 2.6e-4,0.47913 -1.46956,0.70509 -2.70819,0.41634 -1.17756,-0.27451 -3.13594,-1.37418 -3.8305,-2.15089 -1.22064,-1.36501 -2.82822,-2.62141 -3.52324,-2.75357 -1.52343,-0.28968 -2.72445,1.06283 -3.24594,3.65537 -0.25511,1.2683 -0.22484,1.66678 0.26229,3.45333 0.72958,2.67575 0.96258,5.38656 0.46298,5.38656 -0.45132,0 -2.0218,-1.41588 -3.61416,-3.25836 -1.5838,-1.83258 -4.06944,-4.08892 -4.92965,-4.4749 -1.86487,-0.83678 -2.30044,-0.28979 -2.45882,3.08777 -0.099,2.11097 -0.21416,2.75223 -0.54586,3.03919 -0.39318,0.34014 -0.50053,0.31278 -1.65735,-0.42239 -1.65831,-1.05389 -3.75497,-1.87662 -4.78903,-1.87922 -0.64513,-0.002 -1.06965,0.1924 -1.79498,0.82035 -1.26493,1.09511 -1.65327,2.31969 -1.28506,4.0524 0.15085,0.70987 0.22622,1.33228 0.16748,1.38313 -0.16481,0.14268 -2.37293,-1.88626 -5.34157,-4.90811 -5.82673,-5.93118 -5.67813,-5.79801 -6.55242,-5.8721 -1.59989,-0.13557 -1.87514,0.49419 -2.42337,5.54444 -0.39012,3.59388 -0.72681,5.38802 -1.11097,5.92029 -0.38456,0.53282 -1.10961,-0.25003 -2.16752,-2.34035 -2.65843,-5.25276 -4.8345,-6.32981 -7.97129,-3.94542 -1.19473,0.90815 -1.6186,1.63091 -1.80227,3.0731 -0.19926,1.56465 -0.53715,2.44285 -1.11368,2.89456 -0.45812,0.35893 -0.52233,0.35717 -1.30783,-0.0358 -0.45433,-0.22726 -1.61642,-1.28949 -2.58242,-2.36051 -2.63023,-2.91617 -4.22189,-4.22815 -5.12948,-4.22815 -0.48394,0 -0.84119,0.14877 -1.00896,0.42017 -0.14286,0.23109 -0.2731,1.77066 -0.28942,3.42127 -0.0163,1.65061 -0.11396,3.29436 -0.21696,3.65277 l -0.18728,0.65167 -0.46122,-0.9775 c -0.25368,-0.53763 -0.97463,-1.84348 -1.60213,-2.90189 -1.23493,-2.08299 -2.16179,-2.8317 -2.96269,-2.39324 -0.37713,0.20648 -0.4373,0.61913 -0.44306,3.03855 -0.004,1.83986 -0.1152,2.96763 -0.32325,3.28966 -0.29913,0.46301 -0.35674,0.47205 -1.04491,0.16396 -0.40058,-0.17933 -1.67796,-1.2796 -2.83864,-2.44504 -3.46125,-3.47545 -5.09139,-4.59562 -6.23181,-4.28226 -0.71486,0.19643 -0.83975,1.10922 -0.36778,2.68795 0.83969,2.80877 0.46386,4.96899 -1.0113,5.81277 -0.47951,0.27428 -0.60977,0.24954 -1.28818,-0.24466 z"
       id="path49918" />
  </g>
</svg>
