<?xml version="1.0" encoding="UTF-8" standalone="no"?>
<!-- Created with Inkscape (http://www.inkscape.org/) -->

<svg
   width="236mm"
   height="235mm"
   viewBox="0 0 236 235"
   version="1.1"
   id="svg17223"
   inkscape:version="1.2.1 (9c6d41e410, 2022-07-14)"
   sodipodi:docname="Needle1.svg"
   inkscape:export-filename="..\2Dcargame\Assets\Images\Needle1.png"
   inkscape:export-xdpi="96"
   inkscape:export-ydpi="96"
   xmlns:inkscape="http://www.inkscape.org/namespaces/inkscape"
   xmlns:sodipodi="http://sodipodi.sourceforge.net/DTD/sodipodi-0.dtd"
   xmlns="http://www.w3.org/2000/svg"
   xmlns:svg="http://www.w3.org/2000/svg"
   xmlns:rdf="http://www.w3.org/1999/02/22-rdf-syntax-ns#"
   xmlns:cc="http://creativecommons.org/ns#"
   xmlns:dc="http://purl.org/dc/elements/1.1/">
  <title
     id="title23988">Needle1</title>
  <sodipodi:namedview
     id="namedview17225"
     pagecolor="#ffffff"
     bordercolor="#000000"
     borderopacity="0.25"
     inkscape:showpageshadow="2"
     inkscape:pageopacity="0.0"
     inkscape:pagecheckerboard="0"
     inkscape:deskcolor="#d1d1d1"
     inkscape:document-units="mm"
     showgrid="false"
     inkscape:zoom="32"
     inkscape:cx="891.3125"
     inkscape:cy="450.59375"
     inkscape:window-width="1920"
     inkscape:window-height="1017"
     inkscape:window-x="-8"
     inkscape:window-y="-8"
     inkscape:window-maximized="1"
     inkscape:current-layer="layer1" />
  <defs
     id="defs17220" />
  <g
     inkscape:label="Layer 1"
     inkscape:groupmode="layer"
     id="layer1">
    <path
       style="fill:none;fill-opacity:0.392157;stroke:#1160ff;stroke-width:2.28607;stroke-dasharray:none;stroke-opacity:0.507772"
       d="m 114.7654,117.40665 h 83.07813"
       id="path17826" />
    <path
       style="fill:none;fill-opacity:0.392157;stroke:#1160ff;stroke-width:2.94943;stroke-dasharray:none;stroke-opacity:0.507772"
       d="m 114.75786,117.39431 83.07958,-0.0196"
       id="path19934"
       sodipodi:nodetypes="cc" />
    <path
       id="path19990"
       style="fill:#105fff;fill-opacity:0.505882;stroke:none;stroke-width:52.0898;stroke-dasharray:none;stroke-opacity:0.507772"
       d="m 198.03805,115.90027 a 37.142588,1.4717448 0 0 0 -0.20192,5.1e-4 v 2.94243 a 37.142588,1.4717448 0 0 0 0.20192,5.1e-4 37.142588,1.4717448 0 0 0 37.14269,-1.47174 37.142588,1.4717448 0 0 0 -37.14269,-1.47171 z" />
    <path
       id="path19990-3"
       style="fill:#105fff;fill-opacity:0.505882;stroke:none;stroke-width:40.8573;stroke-dasharray:none;stroke-opacity:0.507772"
       d="m 198.00849,116.27332 a 29.724609,1.1314105 0 0 0 -0.16158,4e-4 v 2.26201 a 29.724609,1.1314105 0 0 0 0.16158,4e-4 29.724609,1.1314105 0 0 0 29.72468,-1.13141 29.724609,1.1314105 0 0 0 -29.72468,-1.1314 z" />
    <path
       id="path19990-3-5"
       style="fill:#105fff;fill-opacity:0.505882;stroke:none;stroke-width:24.9056;stroke-dasharray:none;stroke-opacity:0.507772"
       d="m 114.70309,116.25984 a 10.874983,1.1491221 0 0 1 0.0591,4.1e-4 v 2.29742 a 10.874983,1.1491221 0 0 1 -0.0591,4.1e-4 10.874983,1.1491221 0 0 1 -10.87501,-1.14913 10.874983,1.1491221 0 0 1 10.87501,-1.14911 z" />
    <path
       id="path19990-3-5-7"
       style="fill:#105fff;fill-opacity:0.505882;stroke:none;stroke-width:32.8297;stroke-dasharray:none;stroke-opacity:0.507772"
       d="m 114.67864,115.91763 a 14.678605,1.4792785 0 0 1 0.0798,5.2e-4 v 2.95749 a 14.678605,1.4792785 0 0 1 -0.0798,5.1e-4 A 14.678605,1.4792785 0 0 1 100,117.39688 a 14.678605,1.4792785 0 0 1 14.67864,-1.47925 z" />
  </g>
  <metadata
     id="metadata23986">
    <rdf:RDF>
      <cc:Work
         rdf:about="">
        <dc:title>Needle1</dc:title>
      </cc:Work>
    </rdf:RDF>
  </metadata>
</svg>
