<?xml version="1.0" encoding="UTF-8" standalone="no"?>
<!-- Created with Inkscape (http://www.inkscape.org/) -->

<svg
   width="210mm"
   height="297mm"
   viewBox="0 0 210 297"
   version="1.1"
   id="svg5"
   inkscape:version="1.2.1 (9c6d41e410, 2022-07-14)"
   sodipodi:docname="Speedometer1.svg"
   inkscape:export-filename="..\2Dcargame\Assets\Images\Speedometer1.png"
   inkscape:export-xdpi="96"
   inkscape:export-ydpi="96"
   xmlns:inkscape="http://www.inkscape.org/namespaces/inkscape"
   xmlns:sodipodi="http://sodipodi.sourceforge.net/DTD/sodipodi-0.dtd"
   xmlns="http://www.w3.org/2000/svg"
   xmlns:svg="http://www.w3.org/2000/svg"
   xmlns:rdf="http://www.w3.org/1999/02/22-rdf-syntax-ns#"
   xmlns:cc="http://creativecommons.org/ns#"
   xmlns:dc="http://purl.org/dc/elements/1.1/">
  <title
     id="title15584">Speedometer1</title>
  <sodipodi:namedview
     id="namedview7"
     pagecolor="#ffffff"
     bordercolor="#000000"
     borderopacity="0.25"
     inkscape:showpageshadow="2"
     inkscape:pageopacity="0.0"
     inkscape:pagecheckerboard="0"
     inkscape:deskcolor="#d1d1d1"
     inkscape:document-units="mm"
     showgrid="false"
     inkscape:zoom="1.4142136"
     inkscape:cx="383.25187"
     inkscape:cy="569.92806"
     inkscape:window-width="1920"
     inkscape:window-height="1017"
     inkscape:window-x="-8"
     inkscape:window-y="-8"
     inkscape:window-maximized="1"
     inkscape:current-layer="layer1" />
  <defs
     id="defs2">
    <clipPath
       clipPathUnits="userSpaceOnUse"
       id="clipPath11724">
      <path
         id="path11726"
         style="fill:#ff0000;fill-opacity:1;fill-rule:nonzero;stroke:none;stroke-width:0.264583"
         d="M 52.225752,88.774426 V 200.41929 h 14.778427 c 0.246517,-0.25241 0.511566,-0.48506 0.765844,-0.72967 0.314145,-0.30537 0.660998,-0.57359 0.992706,-0.85886 0.271817,-0.22543 0.532374,-0.46465 0.797883,-0.69763 0.210291,-0.20923 0.463624,-0.3713 0.677479,-0.5762 0.01786,-0.0171 -0.03853,0.0306 -0.05788,0.046 0.248632,-0.23562 0.495882,-0.47334 0.744657,-0.70952 0.342805,-0.29907 0.433445,-0.38482 0.680577,-0.61909 0.0049,-0.005 0.01003,-0.009 0.01498,-0.0134 0.07763,-0.10877 0.21435,-0.23673 0.315743,-0.33952 0.04351,-0.0473 0.08671,-0.0948 0.130223,-0.14211 0.0094,-0.0117 0.06026,-0.0734 0.164849,-0.20102 0.03573,-0.0412 0.07176,-0.0823 0.107487,-0.1235 -0.0021,0.002 -0.0037,0.004 -0.0062,0.006 -0.01921,0.01 0.02674,-0.0344 0.04031,-0.0512 0.008,-0.01 0.01625,-0.0196 0.02429,-0.0295 0.0046,-0.006 0.0093,-0.0122 0.01394,-0.0181 0.06871,-0.087 0.137692,-0.17371 0.206706,-0.26045 0.602269,-0.6311 -0.234929,0.20624 0.320911,-0.37311 0.130056,-0.15559 0.170566,-0.20131 0.392739,-0.43408 -0.02999,0.0303 -0.02305,0.022 -0.0098,0.007 -0.149609,0.16614 0.02815,-0.0499 0.09974,-0.13695 -0.01111,0.003 0.05522,-0.0748 0.09974,-0.13126 0.0026,-0.004 0.0026,-0.004 0.0052,-0.007 0.164425,-0.22612 0.23492,-0.30839 0.174148,-0.23876 -0.0011,0.001 -7.93e-4,5.3e-4 -0.0021,0.002 0.02418,-0.0332 0.04325,-0.0708 0.07235,-0.0997 0.139875,-0.19685 0.283478,-0.39043 0.428914,-0.58343 0.47253,-0.65522 0.955926,-1.30192 1.398881,-1.97766 1.083286,-1.69446 2.171422,-3.38581 3.260267,-5.07669 -0.06127,-0.0394 -0.121793,-0.0798 -0.181901,-0.12092 -0.161216,-0.10598 -0.323487,-0.21007 -0.482142,-0.31988 -0.09294,-0.0652 -0.184986,-0.13196 -0.271817,-0.20516 -0.08159,-0.0688 -0.05611,-0.1418 0.0078,-0.14882 0.0036,-5.3e-4 0.0075,-5.3e-4 0.01138,-5.3e-4 0.02678,2.6e-4 0.0585,0.0121 0.09147,0.0388 0.08119,0.0659 0.165544,0.12758 0.251147,0.18758 0.15739,0.10887 0.31862,0.21218 0.478523,0.3173 0.05975,0.0405 0.119679,0.0808 0.180351,0.11988 0.234016,-0.36335 0.4665,-0.72767 0.700733,-1.09088 1.429806,-2.17421 2.857137,-4.35014 4.298963,-6.5164 0.683371,-1.02475 1.382935,-2.03924 2.09496,-3.04426 0.04919,-0.071 0.09809,-0.14191 0.147278,-0.21291 1.812967,-2.61655 3.912357,-3.70233 5.672005,-3.69176 1.018553,0.006 1.921899,0.38159 2.591575,1.03818 0.565981,-0.10874 1.121881,-0.17045 1.66088,-0.1757 2.61171,-0.0254 4.856002,1.12806 6.256462,3.09645 0.0911,-0.17453 0.18814,-0.34652 0.29352,-0.5147 0.61861,-0.98718 0.87826,-1.14287 1.70016,-1.93425 0.93191,-0.62962 1.47141,-1.11087 2.63188,-1.36115 0.56487,-0.12184 1.07882,-0.18805 1.57613,-0.19327 0.82886,-0.009 1.61173,0.15251 2.50682,0.51108 1.44385,0.57838 1.85211,1.16671 2.92902,2.20451 0.31929,0.44794 0.67048,0.87436 0.95757,1.34359 0.008,0.0137 0.0155,0.0277 0.0238,0.0413 0.16241,-0.35918 0.35452,-0.69505 0.57619,-1.01441 -0.1473,-0.10293 -0.2966,-0.20302 -0.44287,-0.30747 -1.06883,-0.76934 -2.14333,-1.53707 -3.13986,-2.39986 -5.14136,-4.45134 -3.23192,-9.45433 0.92398,-9.40459 1.5032,0.018 3.30029,0.69686 5.16403,2.30218 0.79711,0.68661 1.65927,1.29418 2.51302,1.90738 1.3968,0.99383 2.84837,1.90764 4.32118,2.78381 0.98066,0.58236 1.97789,1.1363 2.9683,1.70171 0.60298,0.35649 1.22439,0.68009 1.82934,1.03301 0.50743,0.2858 1.00891,0.57993 1.4981,0.89607 0.33016,0.21068 0.65703,0.42578 0.99477,0.62373 0.24745,0.15319 0.50603,0.2847 0.76223,0.42116 0.15161,0.0826 0.2892,0.15559 0.42943,0.23048 0.0468,0.0199 0.0758,0.0325 0.12506,0.0543 0.24967,-0.15145 0.50612,-0.29127 0.77515,-0.40721 0.40997,-0.17668 0.52748,-0.19955 0.92811,-0.31781 0.61133,-0.14105 1.24915,-0.27666 1.88102,-0.22996 0.29206,0.0216 0.58217,0.0626 0.87333,0.094 0.54897,0.11621 1.10107,0.26432 1.60765,0.5116 0.18027,0.088 0.35489,0.18742 0.53227,0.28112 0.37099,0.22068 0.57185,0.36286 0.95601,0.64647 0.51113,0.37389 0.95416,0.97335 1.26504,1.42937 -0.01,-0.0149 -0.0265,-0.0379 -0.0139,-0.0243 0.0434,0.0476 0.10579,0.13807 0.16485,0.22738 0.0432,0.0421 0.0865,0.084 0.12971,0.12609 0.7953,0.75908 1.49449,1.60938 2.18126,2.46548 1.32945,1.67536 2.56829,3.42005 3.88658,5.10408 0.25915,0.33105 0.52361,0.65784 0.78703,0.98547 0.0277,-0.003 0.0555,-0.006 0.0832,-0.009 1.08893,-0.10009 2.17977,-0.0622 3.26802,0.0196 1.28754,0.11057 2.56393,0.32339 3.83233,0.56585 1.58949,0.29688 3.06681,0.84394 4.42712,1.68362 0.93396,0.0848 1.86709,0.18075 2.79827,0.29456 V 88.774426 Z M 72.066401,195.77926 c 0.01461,-0.0159 0.02931,-0.0316 0.04393,-0.0475 -0.0037,0.004 -0.01394,0.0134 -0.01085,0.01 -0.0083,0.01 -0.03678,0.0423 -0.03307,0.0377 z m 61.854619,-21.45037 c -0.0367,1.5e-4 -0.0742,0.003 -0.11213,0.008 0.0315,0.006 0.063,0.0124 0.0946,0.0181 -0.25043,-0.041 0.32338,0.009 0.0543,-0.015 0.0214,-0.001 0.0858,-0.001 0.0646,-0.004 -0.0328,-0.004 -0.0669,-0.006 -0.10129,-0.006 z m -23.11435,4.84209 c -0.0102,-0.0132 -0.0357,0.0161 -0.0387,0.0326 -0.0234,0.12061 -0.0325,0.24355 -0.045,0.36587 0.0132,-0.0301 0.0259,-0.0484 0.0403,-0.0879 0.0253,-0.0692 0.0435,-0.14146 0.0537,-0.21446 0.004,-0.0319 0.009,-0.0706 -0.0104,-0.0961 z m -3.67057,1.19889 c -5.3e-4,7.9e-4 2.6e-4,0.006 0,0.008 0.001,5.3e-4 0.004,0.002 0.006,0.002 -0.002,-0.002 -0.005,-0.0117 -0.006,-0.01 z m 38.29172,16.15095 c 0.22374,0.20937 0.44229,0.42519 0.64957,0.65474 0.83319,0.92272 0.95526,1.24346 1.58905,2.30167 0.13463,0.31533 0.28417,0.62477 0.41651,0.94103 h 3.12694 c -0.93924,-0.83032 -1.64235,-1.4519 -2.73833,-2.50579 -0.38034,-0.36573 -0.75168,-0.7403 -1.12396,-1.11415 -0.32091,-0.0134 -0.64147,-0.0399 -0.96119,-0.0754 -0.32789,-0.0271 -0.64253,-0.11848 -0.95859,-0.20206 z m 18.15393,0.56999 c 0.0293,0.0196 0.0754,0.0238 0.13022,0.0196 -0.0959,-0.0138 -0.0983,-0.0146 -0.13022,-0.0196 z" />
    </clipPath>
    <clipPath
       clipPathUnits="userSpaceOnUse"
       id="clipPath11734">
      <path
         id="path11736"
         style="fill:#ff0000;fill-opacity:1;fill-rule:nonzero;stroke:none;stroke-width:0.264583"
         d="m 83.806255,178.52089 -13.049851,5.3e-4 v 18.53272 c 0.05619,-0.0536 0.112152,-0.10725 0.168466,-0.16071 0.342805,-0.29907 0.433445,-0.38482 0.680577,-0.61909 0.0049,-0.005 0.01003,-0.009 0.01498,-0.0134 0.07763,-0.10877 0.21435,-0.23673 0.315743,-0.33952 0.04351,-0.0473 0.08671,-0.0948 0.130223,-0.14211 0.0094,-0.0117 0.06026,-0.0734 0.164849,-0.20102 0.03573,-0.0412 0.07176,-0.0823 0.107487,-0.1235 -0.0021,0.002 -0.0037,0.004 -0.0062,0.006 -0.01921,0.01 0.02674,-0.0344 0.04031,-0.0512 0.008,-0.01 0.01625,-0.0196 0.02429,-0.0295 0.0046,-0.006 0.0093,-0.0122 0.01394,-0.0181 0.06871,-0.087 0.137692,-0.17371 0.206706,-0.26045 0.602269,-0.6311 -0.234929,0.20624 0.320911,-0.37311 0.130056,-0.15559 0.170566,-0.20079 0.392739,-0.43356 -0.02999,0.0303 -0.02305,0.0215 -0.0098,0.007 -0.149609,0.16614 0.02815,-0.0499 0.09974,-0.13695 -0.01111,0.003 0.05522,-0.0748 0.09974,-0.13126 0.0026,-0.004 0.0026,-0.004 0.0052,-0.007 0.166264,-0.22865 0.240733,-0.3153 0.176217,-0.24133 0.02241,-0.0318 0.04067,-0.0672 0.06821,-0.0946 0.139874,-0.19685 0.283477,-0.39042 0.428913,-0.58342 0.47253,-0.65522 0.955926,-1.30192 1.398881,-1.97766 1.083286,-1.69446 2.171422,-3.38582 3.260267,-5.07669 -0.06127,-0.0394 -0.121793,-0.0798 -0.181901,-0.12093 -0.161216,-0.10598 -0.323487,-0.21006 -0.482142,-0.31987 -0.09294,-0.0652 -0.184986,-0.13196 -0.271817,-0.20516 -0.08159,-0.0688 -0.05606,-0.14181 0.0078,-0.14883 0.0036,-5.3e-4 0.0075,-5.3e-4 0.01138,-5.3e-4 0.02678,2.6e-4 0.0585,0.012 0.09147,0.0388 0.08119,0.0659 0.165542,0.12759 0.251148,0.18758 0.15739,0.10889 0.318619,0.21217 0.478522,0.3173 0.05975,0.0405 0.119679,0.0808 0.180351,0.11988 0.234016,-0.36335 0.4665,-0.72766 0.700733,-1.09088 1.384319,-2.10503 2.766949,-4.21128 4.16202,-6.30918 z m -11.739854,17.25837 c 0.01461,-0.0159 0.02931,-0.0316 0.04393,-0.0475 -0.0037,0.004 -0.01394,0.0134 -0.01085,0.01 -0.0083,0.01 -0.03678,0.0423 -0.03307,0.0377 z M 144.35966,178.5214 c 0.14379,0.17574 0.28694,0.35218 0.42892,0.52917 1.32945,1.67536 2.56829,3.42004 3.88658,5.10408 0.25907,0.33094 0.52369,0.65743 0.78703,0.98495 0.0277,-0.003 0.0555,-0.006 0.0832,-0.009 1.08893,-0.10009 2.17977,-0.0622 3.26802,0.0196 1.28754,0.11057 2.56393,0.32339 3.83233,0.56585 0.68532,0.128 1.34838,0.30578 1.99161,0.5302 v -7.72511 z m -33.55299,0.64958 c -0.0102,-0.0132 -0.0357,0.0161 -0.0387,0.0326 -0.0234,0.12061 -0.0325,0.24355 -0.045,0.36587 0.0132,-0.0301 0.0259,-0.0484 0.0403,-0.0879 0.0253,-0.0692 0.0435,-0.14146 0.0537,-0.21446 0.004,-0.0319 0.009,-0.0706 -0.0104,-0.0961 z m -3.67057,1.19889 c -5.3e-4,7.9e-4 2.6e-4,0.006 0,0.008 0.001,5.3e-4 0.004,0.002 0.006,0.002 -0.002,-0.002 -0.005,-0.0117 -0.006,-0.01 z m 38.29172,16.15095 c 0.22374,0.20937 0.44229,0.42519 0.64957,0.65474 0.83319,0.92272 0.95526,1.24346 1.58905,2.30167 0.18767,0.43957 0.40573,0.86754 0.56327,1.31878 0.45955,1.31635 0.64056,2.7206 0.59066,4.11086 -0.0142,0.39636 -0.0404,0.69084 -0.0729,0.96377 h 9.00048 c -2.0035,-1.56957 -3.96951,-3.18652 -5.88077,-4.86844 -1.3986,-1.24125 -2.03958,-1.78522 -3.39566,-3.08922 -0.38184,-0.36716 -0.75801,-0.73983 -1.13172,-1.11517 -0.3183,-0.0136 -0.63628,-0.0397 -0.95343,-0.0749 -0.32789,-0.0271 -0.64253,-0.11848 -0.95859,-0.20206 z m -9.58495,5.88956 c -0.46167,0.002 -0.92387,0.039 -1.38079,0.0858 -1.75321,0.23312 -3.4925,0.55349 -5.21416,0.96015 -1.42814,0.33189 -2.86156,0.66096 -4.2447,1.15445 -0.51274,0.20465 -1.01769,0.41852 -1.50688,0.67592 -0.39346,0.20704 -0.65824,0.36831 -1.00459,0.58395 h 16.71887 c 0.0264,-0.0759 0.052,-0.15206 0.076,-0.22686 0.14082,-0.51936 0.25484,-1.04504 0.22324,-1.58698 -0.19665,-0.62098 -0.57377,-0.91176 -1.1591,-1.18908 -0.50344,-0.17996 -0.59348,-0.23259 -1.1312,-0.33848 -0.45389,-0.0894 -0.91499,-0.12123 -1.37666,-0.11886 z m -45.664395,2.73317 c -0.0088,0.0107 -0.01707,0.0219 -0.02582,0.0326 -0.157985,0.23159 -0.315677,0.46298 -0.473358,0.69453 h 0.54157 c -0.01775,-0.24243 -0.0348,-0.48488 -0.04237,-0.72709 z" />
    </clipPath>
  </defs>
  <g
     inkscape:groupmode="layer"
     id="layer2"
     inkscape:label="Background">
    <path
       style="opacity:1;fill:#ff0000;fill-opacity:1;stroke:#ffffff;stroke-width:0.0334066;stroke-dasharray:none;stroke-opacity:0.390845"
       d=""
       id="path16697"
       transform="scale(0.26458333)" />
  </g>
  <g
     inkscape:label="Layer 1"
     inkscape:groupmode="layer"
     id="layer1">
    <circle
       style="display:inline;fill:none;stroke:#000000;stroke-width:2;stroke-dasharray:none;stroke-opacity:0.295337"
       id="circle116"
       cx="108.04839"
       cy="144.59677"
       r="54.822582"
       clip-path="url(#clipPath11724)"
       transform="translate(-2.225811,11.225574)" />
    <path
       style="display:inline;opacity:1;fill:#ababab;fill-opacity:0.39215687;stroke:#ababab;stroke-width:0.1;stroke-dasharray:none;stroke-opacity:0.39084506"
       d="m 74.938061,199.90717 69.748709,-6.84712"
       id="path15972"
       sodipodi:nodetypes="cc" />
    <path
       style="opacity:1;fill:#ababab;fill-opacity:0.392157;stroke:#ababab;stroke-width:0.0472441;stroke-dasharray:none;stroke-opacity:0.390845"
       d="m 280.66848,753.6097 c -12.68003,-9.16456 -24.90562,-20.43129 -35.11369,-32.3597 -14.51825,-16.96498 -26.0461,-35.97724 -34.32353,-56.60796 -1.35338,-3.37317 -3.60626,-9.44731 -3.60626,-9.72307 0,-0.0586 50.68133,-0.10647 112.62518,-0.10647 h 112.62518 l -0.0314,42.90593 -0.0314,42.90592 -74.6875,7.33805 c -41.07813,4.03593 -74.78043,7.34076 -74.89402,7.34407 -0.11358,0.003 -1.26671,-0.76023 -2.5625,-1.69677 z"
       id="path17194"
       transform="scale(0.26458333)" />
    <path
       style="opacity:1;fill:#ababab;fill-opacity:0.392157;stroke:#ababab;stroke-width:0.00147638;stroke-dasharray:none;stroke-opacity:0.390845"
       d="m 283.07422,755.4229 c -1.05624,-0.74239 -2.04526,-1.45034 -3.01758,-2.16001 l -0.22656,-0.16537 -0.001,-0.0322 c -6.2e-4,-0.0177 7e-5,-0.0322 0.002,-0.0322 0.001,0 0.0213,0.0138 0.0441,0.0307 0.0782,0.0579 0.17803,0.13058 0.59613,0.43406 0.487,0.35349 1.02255,0.73263 1.375,0.97342 0.0301,0.0206 0.074,0.0507 0.0977,0.067 0.19517,0.13474 0.65709,0.43986 0.82467,0.54472 0.27578,0.17258 0.40581,0.24267 0.45658,0.2461 0.0129,8.7e-4 0.0718,-0.003 0.13086,-0.009 0.0591,-0.006 0.36055,-0.0348 0.66992,-0.0647 0.56306,-0.0544 0.87866,-0.0852 2.26563,-0.22062 1.05097,-0.10263 1.87918,-0.18345 2.04101,-0.19918 0.0763,-0.007 0.1479,-0.0145 0.15918,-0.0158 l 0.0205,-0.002 v 0.014 c 0,0.0107 -0.002,0.014 -0.007,0.014 -0.0166,1.1e-4 -5.2909,0.51905 -5.29258,0.52073 -0.001,0.001 0.002,0.0376 0.006,0.0813 0.004,0.0437 0.007,0.0797 0.007,0.0801 -3.9e-4,3.9e-4 -0.0684,-0.0469 -0.1511,-0.10501 z"
       id="path17196"
       transform="scale(0.26458333)" />
    <path
       style="opacity:1;fill:#ababab;fill-opacity:0.392157;stroke:#ababab;stroke-width:0.133626;stroke-dasharray:none;stroke-opacity:0.390845"
       d="M 433.1029,697.5825 V 654.6041 H 320.3482 207.59349 l -0.71426,-2.20971 c -7.56463,-23.40265 -11.04068,-48.35263 -9.95912,-71.48326 0.56908,-12.17033 1.76814,-22.12903 3.94042,-32.7266 5.96356,-29.09358 18.47769,-56.95251 36.328,-80.87336 l 3.7581,-5.03616 159.01222,-0.002 159.01221,-0.002 3.72797,4.99145 c 21.2971,28.51525 34.70317,61.96701 39.01865,97.36225 2.11888,17.37902 1.87241,36.26579 -0.70128,53.74012 -5.45374,37.02858 -21.22671,72.31419 -45.04182,100.76271 -5.79173,6.91858 -8.66046,9.87716 -9.86194,10.17085 -0.61055,0.14925 -25.61134,2.65355 -55.55731,5.5651 -29.94597,2.91156 -55.1234,5.38456 -55.94983,5.49555 l -1.5026,0.20181 z"
       id="path17198"
       transform="scale(0.26458333)" />
    <path
       style="opacity:1;fill:#ababab;fill-opacity:0.392157;stroke:#ababab;stroke-width:0.377953;stroke-dasharray:none;stroke-opacity:0.390845"
       d="m 243,460.54055 c 0,-0.5277 5.5125,-6.52827 12.25,-13.3346 17.62359,-17.80365 34.81389,-30.32536 55.25,-40.24507 29.35606,-14.24945 56.74077,-20.5316 89.5,-20.5316 26.99584,0 50.44605,4.35393 74,13.73934 19.18271,7.64363 31.16444,14.36435 48.35001,27.12017 C 531.98634,434.44127 557,458.43007 557,460.51911 557,461.15613 501.96123,461.5 400,461.5 c -99.57623,0 -157,-0.35093 -157,-0.95945 z"
       id="path17200"
       transform="scale(0.26458333)" />
  </g>
  <metadata
     id="metadata15582">
    <rdf:RDF>
      <cc:Work
         rdf:about="">
        <dc:title>Speedometer1</dc:title>
      </cc:Work>
    </rdf:RDF>
  </metadata>
</svg>
